<mxfile host="Electron" modified="2024-12-02T07:30:19.794Z" agent="Mozilla/5.0 (Windows NT 10.0; Win64; x64) AppleWebKit/537.36 (KHTML, like Gecko) draw.io/24.6.4 Chrome/124.0.6367.207 Electron/30.0.6 Safari/537.36" etag="BykR-13gcDzD5g5Y-ozB" version="24.6.4" type="device">
  <diagram name="Страница — 1" id="H0fnMuuXgLZo9D4dqB9F">
    <mxGraphModel dx="1500" dy="899" grid="1" gridSize="10" guides="1" tooltips="1" connect="1" arrows="1" fold="1" page="1" pageScale="1" pageWidth="3300" pageHeight="2339" math="0" shadow="0">
      <root>
        <mxCell id="0" />
        <mxCell id="1" parent="0" />
        <mxCell id="naLeFJOA4xzYUaONAAyw-95" value="" style="ellipse;whiteSpace=wrap;html=1;fillColor=default;" parent="1" vertex="1">
          <mxGeometry x="522.5" y="40" width="230" height="40" as="geometry" />
        </mxCell>
        <mxCell id="naLeFJOA4xzYUaONAAyw-96" value="&lt;font face=&quot;Times New Roman&quot; style=&quot;font-size: 14px;&quot;&gt;Просмотр страниц сайта&lt;/font&gt;" style="text;html=1;align=center;verticalAlign=middle;whiteSpace=wrap;rounded=0;" parent="1" vertex="1">
          <mxGeometry x="561.25" y="45" width="152.5" height="30" as="geometry" />
        </mxCell>
        <mxCell id="naLeFJOA4xzYUaONAAyw-104" value="" style="ellipse;whiteSpace=wrap;html=1;fillColor=default;" parent="1" vertex="1">
          <mxGeometry x="522.5" y="161" width="230" height="39" as="geometry" />
        </mxCell>
        <mxCell id="naLeFJOA4xzYUaONAAyw-106" value="&lt;font style=&quot;font-size: 14px;&quot; face=&quot;Times New Roman&quot;&gt;Поиск информации&lt;/font&gt;" style="text;html=1;align=center;verticalAlign=middle;whiteSpace=wrap;rounded=0;" parent="1" vertex="1">
          <mxGeometry x="578.75" y="165.5" width="122.5" height="30" as="geometry" />
        </mxCell>
        <mxCell id="naLeFJOA4xzYUaONAAyw-107" value="&lt;font style=&quot;font-size: 18px;&quot; face=&quot;Times New Roman&quot;&gt;Гость&lt;/font&gt;" style="shape=umlActor;verticalLabelPosition=bottom;verticalAlign=top;html=1;" parent="1" vertex="1">
          <mxGeometry x="340" y="70" width="110" height="221" as="geometry" />
        </mxCell>
        <mxCell id="naLeFJOA4xzYUaONAAyw-109" value="&lt;font style=&quot;font-size: 18px;&quot; face=&quot;Times New Roman&quot;&gt;Администратор&lt;/font&gt;" style="shape=umlActor;verticalLabelPosition=bottom;verticalAlign=top;html=1;" parent="1" vertex="1">
          <mxGeometry x="340" y="530" width="110" height="220" as="geometry" />
        </mxCell>
        <mxCell id="naLeFJOA4xzYUaONAAyw-112" value="" style="line;strokeWidth=1;fillColor=none;align=left;verticalAlign=middle;spacingTop=-1;spacingLeft=3;spacingRight=3;rotatable=0;labelPosition=right;points=[];portConstraint=eastwest;strokeColor=inherit;" parent="1" vertex="1">
          <mxGeometry x="460" y="647" width="290" height="8" as="geometry" />
        </mxCell>
        <mxCell id="naLeFJOA4xzYUaONAAyw-116" value="" style="group" parent="1" vertex="1" connectable="0">
          <mxGeometry x="1120" y="510" width="230" height="50" as="geometry" />
        </mxCell>
        <mxCell id="naLeFJOA4xzYUaONAAyw-117" value="" style="ellipse;whiteSpace=wrap;html=1;fillColor=default;" parent="naLeFJOA4xzYUaONAAyw-116" vertex="1">
          <mxGeometry width="230" height="50" as="geometry" />
        </mxCell>
        <mxCell id="naLeFJOA4xzYUaONAAyw-118" value="&lt;font style=&quot;font-size: 14px;&quot; face=&quot;Times New Roman&quot;&gt;Редактирование информации о спартакиадах&lt;/font&gt;" style="text;html=1;align=center;verticalAlign=middle;whiteSpace=wrap;rounded=0;" parent="naLeFJOA4xzYUaONAAyw-116" vertex="1">
          <mxGeometry x="26" y="10" width="178" height="30" as="geometry" />
        </mxCell>
        <mxCell id="naLeFJOA4xzYUaONAAyw-119" value="" style="group" parent="1" vertex="1" connectable="0">
          <mxGeometry x="1110" y="680" width="230" height="40" as="geometry" />
        </mxCell>
        <mxCell id="naLeFJOA4xzYUaONAAyw-120" value="" style="ellipse;whiteSpace=wrap;html=1;fillColor=default;" parent="naLeFJOA4xzYUaONAAyw-119" vertex="1">
          <mxGeometry width="230" height="40" as="geometry" />
        </mxCell>
        <mxCell id="naLeFJOA4xzYUaONAAyw-121" value="&lt;font style=&quot;font-size: 14px;&quot; face=&quot;Times New Roman&quot;&gt;Редактирование новостей&lt;/font&gt;" style="text;html=1;align=center;verticalAlign=middle;whiteSpace=wrap;rounded=0;" parent="naLeFJOA4xzYUaONAAyw-119" vertex="1">
          <mxGeometry x="35" width="160" height="40" as="geometry" />
        </mxCell>
        <mxCell id="naLeFJOA4xzYUaONAAyw-125" value="" style="ellipse;whiteSpace=wrap;html=1;fillColor=default;" parent="1" vertex="1">
          <mxGeometry x="760" y="636" width="230" height="30" as="geometry" />
        </mxCell>
        <mxCell id="naLeFJOA4xzYUaONAAyw-126" value="&lt;font style=&quot;font-size: 14px;&quot; face=&quot;Times New Roman&quot;&gt;Работа в админ панели&lt;/font&gt;" style="text;html=1;align=center;verticalAlign=middle;whiteSpace=wrap;rounded=0;" parent="1" vertex="1">
          <mxGeometry x="800" y="636" width="150" height="30" as="geometry" />
        </mxCell>
        <mxCell id="naLeFJOA4xzYUaONAAyw-127" value="&amp;lt;&amp;lt;include&amp;gt;&amp;gt;" style="html=1;verticalAlign=bottom;endArrow=open;dashed=1;endSize=8;curved=0;rounded=0;" parent="1" edge="1">
          <mxGeometry relative="1" as="geometry">
            <mxPoint x="1005" y="647" as="sourcePoint" />
            <mxPoint x="1100" y="647" as="targetPoint" />
          </mxGeometry>
        </mxCell>
        <mxCell id="naLeFJOA4xzYUaONAAyw-128" value="&amp;lt;&amp;lt;include&amp;gt;&amp;gt;" style="html=1;verticalAlign=bottom;endArrow=open;dashed=1;endSize=8;curved=0;rounded=0;" parent="1" edge="1">
          <mxGeometry x="-0.0792" y="15" relative="1" as="geometry">
            <mxPoint x="1010" y="641" as="sourcePoint" />
            <mxPoint x="1110" y="540" as="targetPoint" />
            <mxPoint as="offset" />
          </mxGeometry>
        </mxCell>
        <mxCell id="naLeFJOA4xzYUaONAAyw-129" value="&amp;lt;&amp;lt;include&amp;gt;&amp;gt;" style="html=1;verticalAlign=bottom;endArrow=open;dashed=1;endSize=8;curved=0;rounded=0;entryX=-0.004;entryY=0.679;entryDx=0;entryDy=0;entryPerimeter=0;" parent="1" target="naLeFJOA4xzYUaONAAyw-176" edge="1">
          <mxGeometry x="0.3962" y="6" relative="1" as="geometry">
            <mxPoint x="1010" y="641" as="sourcePoint" />
            <mxPoint x="1100" y="591" as="targetPoint" />
            <mxPoint as="offset" />
          </mxGeometry>
        </mxCell>
        <mxCell id="naLeFJOA4xzYUaONAAyw-130" value="&amp;lt;&amp;lt;include&amp;gt;&amp;gt;" style="html=1;verticalAlign=bottom;endArrow=open;dashed=1;endSize=8;curved=0;rounded=0;" parent="1" edge="1">
          <mxGeometry x="0.1655" y="5" relative="1" as="geometry">
            <mxPoint x="1010" y="651" as="sourcePoint" />
            <mxPoint x="1110" y="691" as="targetPoint" />
            <mxPoint as="offset" />
          </mxGeometry>
        </mxCell>
        <mxCell id="naLeFJOA4xzYUaONAAyw-166" value="" style="group" parent="1" vertex="1" connectable="0">
          <mxGeometry x="525" y="220" width="230" height="40" as="geometry" />
        </mxCell>
        <mxCell id="naLeFJOA4xzYUaONAAyw-167" value="" style="ellipse;whiteSpace=wrap;html=1;fillColor=default;" parent="naLeFJOA4xzYUaONAAyw-166" vertex="1">
          <mxGeometry width="230" height="40" as="geometry" />
        </mxCell>
        <mxCell id="naLeFJOA4xzYUaONAAyw-168" value="&lt;font style=&quot;font-size: 14px;&quot; face=&quot;Times New Roman&quot;&gt;Просмотр новостей&lt;/font&gt;" style="text;html=1;align=center;verticalAlign=middle;whiteSpace=wrap;rounded=0;" parent="naLeFJOA4xzYUaONAAyw-166" vertex="1">
          <mxGeometry x="37.5" width="152.5" height="40" as="geometry" />
        </mxCell>
        <mxCell id="naLeFJOA4xzYUaONAAyw-169" value="" style="endArrow=classic;html=1;rounded=0;" parent="1" edge="1">
          <mxGeometry width="50" height="50" relative="1" as="geometry">
            <mxPoint x="394.41" y="470" as="sourcePoint" />
            <mxPoint x="394.41" y="410" as="targetPoint" />
          </mxGeometry>
        </mxCell>
        <mxCell id="naLeFJOA4xzYUaONAAyw-171" value="&lt;font style=&quot;font-size: 14px;&quot; face=&quot;Times New Roman&quot;&gt;Доступно после авторизации&lt;/font&gt;" style="html=1;whiteSpace=wrap;" parent="1" vertex="1">
          <mxGeometry x="545" y="551" width="110" height="50" as="geometry" />
        </mxCell>
        <mxCell id="naLeFJOA4xzYUaONAAyw-172" value="" style="endArrow=none;dashed=1;html=1;rounded=0;" parent="1" edge="1">
          <mxGeometry width="50" height="50" relative="1" as="geometry">
            <mxPoint x="600" y="651" as="sourcePoint" />
            <mxPoint x="600" y="601" as="targetPoint" />
          </mxGeometry>
        </mxCell>
        <mxCell id="naLeFJOA4xzYUaONAAyw-175" value="" style="group" parent="1" vertex="1" connectable="0">
          <mxGeometry x="1110" y="580" width="230" height="41" as="geometry" />
        </mxCell>
        <mxCell id="naLeFJOA4xzYUaONAAyw-176" value="" style="ellipse;whiteSpace=wrap;html=1;fillColor=default;" parent="naLeFJOA4xzYUaONAAyw-175" vertex="1">
          <mxGeometry y="-10" width="230" height="51" as="geometry" />
        </mxCell>
        <mxCell id="naLeFJOA4xzYUaONAAyw-177" value="&lt;font style=&quot;font-size: 14px;&quot; face=&quot;Times New Roman&quot;&gt;Редактирование заявок&lt;/font&gt;" style="text;html=1;align=center;verticalAlign=middle;whiteSpace=wrap;rounded=0;" parent="naLeFJOA4xzYUaONAAyw-175" vertex="1">
          <mxGeometry x="26" width="178" height="30" as="geometry" />
        </mxCell>
        <mxCell id="naLeFJOA4xzYUaONAAyw-178" value="" style="group" parent="1" vertex="1" connectable="0">
          <mxGeometry x="1110" y="625.5" width="230" height="51" as="geometry" />
        </mxCell>
        <mxCell id="naLeFJOA4xzYUaONAAyw-179" value="" style="ellipse;whiteSpace=wrap;html=1;fillColor=default;" parent="naLeFJOA4xzYUaONAAyw-178" vertex="1">
          <mxGeometry width="230" height="51" as="geometry" />
        </mxCell>
        <mxCell id="naLeFJOA4xzYUaONAAyw-180" value="&lt;font style=&quot;font-size: 14px;&quot; face=&quot;Times New Roman&quot;&gt;Редактирование итогов&lt;/font&gt;" style="text;html=1;align=center;verticalAlign=middle;whiteSpace=wrap;rounded=0;" parent="naLeFJOA4xzYUaONAAyw-178" vertex="1">
          <mxGeometry x="26" y="6.841463414634147" width="178" height="37.31707317073171" as="geometry" />
        </mxCell>
        <mxCell id="naLeFJOA4xzYUaONAAyw-183" value="" style="endArrow=none;html=1;rounded=0;" parent="1" edge="1">
          <mxGeometry width="50" height="50" relative="1" as="geometry">
            <mxPoint x="460" y="190" as="sourcePoint" />
            <mxPoint x="520" y="60" as="targetPoint" />
          </mxGeometry>
        </mxCell>
        <mxCell id="naLeFJOA4xzYUaONAAyw-187" value="" style="endArrow=none;html=1;rounded=0;" parent="1" edge="1">
          <mxGeometry width="50" height="50" relative="1" as="geometry">
            <mxPoint x="460" y="191" as="sourcePoint" />
            <mxPoint x="520" y="180" as="targetPoint" />
          </mxGeometry>
        </mxCell>
        <mxCell id="naLeFJOA4xzYUaONAAyw-188" value="" style="endArrow=none;html=1;rounded=0;" parent="1" edge="1">
          <mxGeometry width="50" height="50" relative="1" as="geometry">
            <mxPoint x="460" y="191" as="sourcePoint" />
            <mxPoint x="520" y="400" as="targetPoint" />
          </mxGeometry>
        </mxCell>
        <mxCell id="naLeFJOA4xzYUaONAAyw-189" value="" style="endArrow=none;html=1;rounded=0;" parent="1" edge="1">
          <mxGeometry width="50" height="50" relative="1" as="geometry">
            <mxPoint x="460" y="190" as="sourcePoint" />
            <mxPoint x="520" y="120" as="targetPoint" />
          </mxGeometry>
        </mxCell>
        <mxCell id="naLeFJOA4xzYUaONAAyw-191" value="" style="ellipse;whiteSpace=wrap;html=1;fillColor=default;" parent="1" vertex="1">
          <mxGeometry x="522.5" y="100" width="230" height="40" as="geometry" />
        </mxCell>
        <mxCell id="naLeFJOA4xzYUaONAAyw-192" value="&lt;font face=&quot;Times New Roman&quot; style=&quot;font-size: 14px;&quot;&gt;Просмотр спартакиад&lt;/font&gt;" style="text;html=1;align=center;verticalAlign=middle;whiteSpace=wrap;rounded=0;" parent="1" vertex="1">
          <mxGeometry x="571.25" y="105" width="132.5" height="30" as="geometry" />
        </mxCell>
        <mxCell id="naLeFJOA4xzYUaONAAyw-193" value="&amp;lt;&amp;lt;include&amp;gt;&amp;gt;" style="html=1;verticalAlign=bottom;endArrow=open;dashed=1;endSize=8;curved=0;rounded=0;" parent="1" edge="1">
          <mxGeometry relative="1" as="geometry">
            <mxPoint x="1070" y="104.32999999999998" as="sourcePoint" />
            <mxPoint x="1165" y="104.32999999999998" as="targetPoint" />
          </mxGeometry>
        </mxCell>
        <mxCell id="naLeFJOA4xzYUaONAAyw-195" value="" style="group" parent="1" vertex="1" connectable="0">
          <mxGeometry x="1170" y="90" width="230" height="30" as="geometry" />
        </mxCell>
        <mxCell id="naLeFJOA4xzYUaONAAyw-196" value="" style="ellipse;whiteSpace=wrap;html=1;fillColor=default;" parent="naLeFJOA4xzYUaONAAyw-195" vertex="1">
          <mxGeometry width="230" height="30" as="geometry" />
        </mxCell>
        <mxCell id="naLeFJOA4xzYUaONAAyw-197" value="&lt;font style=&quot;font-size: 14px;&quot; face=&quot;Times New Roman&quot;&gt;Выбор вида спорта&lt;/font&gt;" style="text;html=1;align=center;verticalAlign=middle;whiteSpace=wrap;rounded=0;" parent="naLeFJOA4xzYUaONAAyw-195" vertex="1">
          <mxGeometry x="37.5" width="152.5" height="30" as="geometry" />
        </mxCell>
        <mxCell id="naLeFJOA4xzYUaONAAyw-198" value="&amp;lt;&amp;lt;include&amp;gt;&amp;gt;" style="html=1;verticalAlign=bottom;endArrow=open;dashed=1;endSize=8;curved=0;rounded=0;" parent="1" edge="1">
          <mxGeometry relative="1" as="geometry">
            <mxPoint x="1410" y="104.16999999999999" as="sourcePoint" />
            <mxPoint x="1505" y="104.16999999999999" as="targetPoint" />
          </mxGeometry>
        </mxCell>
        <mxCell id="naLeFJOA4xzYUaONAAyw-199" value="" style="group" parent="1" vertex="1" connectable="0">
          <mxGeometry x="1510" y="90" width="230" height="30" as="geometry" />
        </mxCell>
        <mxCell id="naLeFJOA4xzYUaONAAyw-200" value="" style="ellipse;whiteSpace=wrap;html=1;fillColor=default;" parent="naLeFJOA4xzYUaONAAyw-199" vertex="1">
          <mxGeometry width="230" height="30" as="geometry" />
        </mxCell>
        <mxCell id="naLeFJOA4xzYUaONAAyw-201" value="&lt;font style=&quot;font-size: 14px;&quot; face=&quot;Times New Roman&quot;&gt;Просмотр новостей выбранной области&lt;/font&gt;" style="text;html=1;align=center;verticalAlign=middle;whiteSpace=wrap;rounded=0;" parent="naLeFJOA4xzYUaONAAyw-199" vertex="1">
          <mxGeometry x="29.380000000000003" width="171.25" height="30" as="geometry" />
        </mxCell>
        <mxCell id="naLeFJOA4xzYUaONAAyw-213" value="" style="group" parent="1" vertex="1" connectable="0">
          <mxGeometry x="860" y="90" width="230" height="30" as="geometry" />
        </mxCell>
        <mxCell id="naLeFJOA4xzYUaONAAyw-214" value="" style="ellipse;whiteSpace=wrap;html=1;fillColor=default;" parent="naLeFJOA4xzYUaONAAyw-213" vertex="1">
          <mxGeometry width="230" height="30" as="geometry" />
        </mxCell>
        <mxCell id="naLeFJOA4xzYUaONAAyw-215" value="&lt;font style=&quot;font-size: 14px;&quot; face=&quot;Times New Roman&quot;&gt;Выбор спартакиады&lt;/font&gt;" style="text;html=1;align=center;verticalAlign=middle;whiteSpace=wrap;rounded=0;" parent="naLeFJOA4xzYUaONAAyw-213" vertex="1">
          <mxGeometry x="37.5" width="152.5" height="30" as="geometry" />
        </mxCell>
        <mxCell id="naLeFJOA4xzYUaONAAyw-216" value="&amp;lt;&amp;lt;include&amp;gt;&amp;gt;" style="html=1;verticalAlign=bottom;endArrow=open;dashed=1;endSize=8;curved=0;rounded=0;" parent="1" edge="1">
          <mxGeometry relative="1" as="geometry">
            <mxPoint x="760" y="109.99999999999997" as="sourcePoint" />
            <mxPoint x="855" y="109.99999999999997" as="targetPoint" />
          </mxGeometry>
        </mxCell>
        <mxCell id="naLeFJOA4xzYUaONAAyw-217" value="" style="group" parent="1" vertex="1" connectable="0">
          <mxGeometry x="522.5" y="280" width="230" height="40" as="geometry" />
        </mxCell>
        <mxCell id="naLeFJOA4xzYUaONAAyw-218" value="" style="ellipse;whiteSpace=wrap;html=1;fillColor=default;" parent="naLeFJOA4xzYUaONAAyw-217" vertex="1">
          <mxGeometry width="230" height="40" as="geometry" />
        </mxCell>
        <mxCell id="naLeFJOA4xzYUaONAAyw-219" value="&lt;font style=&quot;font-size: 14px;&quot; face=&quot;Times New Roman&quot;&gt;Просмотр положения&lt;/font&gt;" style="text;html=1;align=center;verticalAlign=middle;whiteSpace=wrap;rounded=0;" parent="naLeFJOA4xzYUaONAAyw-217" vertex="1">
          <mxGeometry x="38.75" y="5" width="152.5" height="30" as="geometry" />
        </mxCell>
        <mxCell id="naLeFJOA4xzYUaONAAyw-221" value="" style="group" parent="1" vertex="1" connectable="0">
          <mxGeometry x="530" y="330" width="230" height="40" as="geometry" />
        </mxCell>
        <mxCell id="naLeFJOA4xzYUaONAAyw-222" value="" style="ellipse;whiteSpace=wrap;html=1;fillColor=default;" parent="naLeFJOA4xzYUaONAAyw-221" vertex="1">
          <mxGeometry width="230" height="40" as="geometry" />
        </mxCell>
        <mxCell id="naLeFJOA4xzYUaONAAyw-223" value="&lt;font style=&quot;font-size: 14px;&quot; face=&quot;Times New Roman&quot;&gt;Просмотр графика работы спортивных секций&lt;/font&gt;" style="text;html=1;align=center;verticalAlign=middle;whiteSpace=wrap;rounded=0;" parent="naLeFJOA4xzYUaONAAyw-221" vertex="1">
          <mxGeometry x="28.75" width="172.5" height="40" as="geometry" />
        </mxCell>
        <mxCell id="naLeFJOA4xzYUaONAAyw-224" value="" style="group" parent="1" vertex="1" connectable="0">
          <mxGeometry x="530" y="380" width="230" height="40" as="geometry" />
        </mxCell>
        <mxCell id="naLeFJOA4xzYUaONAAyw-225" value="" style="ellipse;whiteSpace=wrap;html=1;fillColor=default;" parent="naLeFJOA4xzYUaONAAyw-224" vertex="1">
          <mxGeometry width="230" height="40" as="geometry" />
        </mxCell>
        <mxCell id="naLeFJOA4xzYUaONAAyw-226" value="&lt;font style=&quot;font-size: 14px;&quot; face=&quot;Times New Roman&quot;&gt;Просмотр графика работы спортивных залов&lt;/font&gt;" style="text;html=1;align=center;verticalAlign=middle;whiteSpace=wrap;rounded=0;" parent="naLeFJOA4xzYUaONAAyw-224" vertex="1">
          <mxGeometry x="33.75" y="5" width="162.5" height="30" as="geometry" />
        </mxCell>
        <mxCell id="naLeFJOA4xzYUaONAAyw-228" value="" style="endArrow=none;html=1;rounded=0;" parent="1" edge="1">
          <mxGeometry width="50" height="50" relative="1" as="geometry">
            <mxPoint x="460" y="190" as="sourcePoint" />
            <mxPoint x="520" y="240" as="targetPoint" />
          </mxGeometry>
        </mxCell>
        <mxCell id="naLeFJOA4xzYUaONAAyw-229" value="" style="endArrow=none;html=1;rounded=0;" parent="1" edge="1">
          <mxGeometry width="50" height="50" relative="1" as="geometry">
            <mxPoint x="460" y="190" as="sourcePoint" />
            <mxPoint x="520" y="300" as="targetPoint" />
          </mxGeometry>
        </mxCell>
        <mxCell id="naLeFJOA4xzYUaONAAyw-230" value="" style="endArrow=none;html=1;rounded=0;" parent="1" edge="1">
          <mxGeometry width="50" height="50" relative="1" as="geometry">
            <mxPoint x="460" y="190" as="sourcePoint" />
            <mxPoint x="520" y="340" as="targetPoint" />
          </mxGeometry>
        </mxCell>
        <mxCell id="naLeFJOA4xzYUaONAAyw-231" value="" style="group" parent="1" vertex="1" connectable="0">
          <mxGeometry x="1110" y="730" width="230" height="39" as="geometry" />
        </mxCell>
        <mxCell id="naLeFJOA4xzYUaONAAyw-232" value="" style="ellipse;whiteSpace=wrap;html=1;fillColor=default;" parent="naLeFJOA4xzYUaONAAyw-231" vertex="1">
          <mxGeometry width="230" height="39" as="geometry" />
        </mxCell>
        <mxCell id="naLeFJOA4xzYUaONAAyw-233" value="&lt;font style=&quot;font-size: 14px;&quot; face=&quot;Times New Roman&quot;&gt;Редактирование графика работы спортивных секций&lt;/font&gt;" style="text;html=1;align=center;verticalAlign=middle;whiteSpace=wrap;rounded=0;" parent="naLeFJOA4xzYUaONAAyw-231" vertex="1">
          <mxGeometry x="27.5" y="4.5" width="175" height="30" as="geometry" />
        </mxCell>
        <mxCell id="naLeFJOA4xzYUaONAAyw-234" value="" style="group" parent="1" vertex="1" connectable="0">
          <mxGeometry x="1110" y="780" width="230" height="39" as="geometry" />
        </mxCell>
        <mxCell id="naLeFJOA4xzYUaONAAyw-235" value="" style="ellipse;whiteSpace=wrap;html=1;fillColor=default;" parent="naLeFJOA4xzYUaONAAyw-234" vertex="1">
          <mxGeometry width="230" height="39" as="geometry" />
        </mxCell>
        <mxCell id="naLeFJOA4xzYUaONAAyw-236" value="&lt;font style=&quot;font-size: 14px;&quot; face=&quot;Times New Roman&quot;&gt;Редактирование графика работы спортивных залов&lt;/font&gt;" style="text;html=1;align=center;verticalAlign=middle;whiteSpace=wrap;rounded=0;" parent="naLeFJOA4xzYUaONAAyw-234" vertex="1">
          <mxGeometry x="27.5" y="4.5" width="175" height="30" as="geometry" />
        </mxCell>
        <mxCell id="naLeFJOA4xzYUaONAAyw-237" value="&amp;lt;&amp;lt;include&amp;gt;&amp;gt;" style="html=1;verticalAlign=bottom;endArrow=open;dashed=1;endSize=8;curved=0;rounded=0;" parent="1" edge="1">
          <mxGeometry x="0.3591" y="12" relative="1" as="geometry">
            <mxPoint x="1010" y="650" as="sourcePoint" />
            <mxPoint x="1100" y="750" as="targetPoint" />
            <mxPoint as="offset" />
          </mxGeometry>
        </mxCell>
        <mxCell id="naLeFJOA4xzYUaONAAyw-238" value="&amp;lt;&amp;lt;include&amp;gt;&amp;gt;" style="html=1;verticalAlign=bottom;endArrow=open;dashed=1;endSize=8;curved=0;rounded=0;entryX=0;entryY=0.5;entryDx=0;entryDy=0;" parent="1" target="naLeFJOA4xzYUaONAAyw-235" edge="1">
          <mxGeometry x="0.2334" y="-14" relative="1" as="geometry">
            <mxPoint x="1010" y="650" as="sourcePoint" />
            <mxPoint x="1130" y="711" as="targetPoint" />
            <mxPoint as="offset" />
          </mxGeometry>
        </mxCell>
        <mxCell id="naLeFJOA4xzYUaONAAyw-240" value="" style="group" parent="1" vertex="1" connectable="0">
          <mxGeometry x="530" y="430" width="230" height="40" as="geometry" />
        </mxCell>
        <mxCell id="naLeFJOA4xzYUaONAAyw-241" value="" style="ellipse;whiteSpace=wrap;html=1;fillColor=default;" parent="naLeFJOA4xzYUaONAAyw-240" vertex="1">
          <mxGeometry width="230" height="40" as="geometry" />
        </mxCell>
        <mxCell id="naLeFJOA4xzYUaONAAyw-242" value="&lt;font style=&quot;font-size: 14px;&quot; face=&quot;Times New Roman&quot;&gt;Отправка сообщения преподавателю&lt;/font&gt;" style="text;html=1;align=center;verticalAlign=middle;whiteSpace=wrap;rounded=0;" parent="naLeFJOA4xzYUaONAAyw-240" vertex="1">
          <mxGeometry x="33.75" y="5" width="162.5" height="30" as="geometry" />
        </mxCell>
        <mxCell id="naLeFJOA4xzYUaONAAyw-243" value="" style="endArrow=none;html=1;rounded=0;" parent="1" edge="1">
          <mxGeometry width="50" height="50" relative="1" as="geometry">
            <mxPoint x="460" y="190" as="sourcePoint" />
            <mxPoint x="520" y="450" as="targetPoint" />
          </mxGeometry>
        </mxCell>
        <mxCell id="naLeFJOA4xzYUaONAAyw-245" value="" style="group" parent="1" vertex="1" connectable="0">
          <mxGeometry x="1110" y="830" width="230" height="39" as="geometry" />
        </mxCell>
        <mxCell id="naLeFJOA4xzYUaONAAyw-246" value="" style="ellipse;whiteSpace=wrap;html=1;fillColor=default;" parent="naLeFJOA4xzYUaONAAyw-245" vertex="1">
          <mxGeometry width="230" height="39" as="geometry" />
        </mxCell>
        <mxCell id="naLeFJOA4xzYUaONAAyw-247" value="&lt;font style=&quot;font-size: 14px;&quot; face=&quot;Times New Roman&quot;&gt;Ответы на сообщения&lt;/font&gt;" style="text;html=1;align=center;verticalAlign=middle;whiteSpace=wrap;rounded=0;" parent="naLeFJOA4xzYUaONAAyw-245" vertex="1">
          <mxGeometry x="27.5" y="4.5" width="175" height="30" as="geometry" />
        </mxCell>
        <mxCell id="naLeFJOA4xzYUaONAAyw-248" value="&amp;lt;&amp;lt;include&amp;gt;&amp;gt;" style="html=1;verticalAlign=bottom;endArrow=open;dashed=1;endSize=8;curved=0;rounded=0;" parent="1" edge="1">
          <mxGeometry x="0.286" y="-24" relative="1" as="geometry">
            <mxPoint x="1000" y="650" as="sourcePoint" />
            <mxPoint x="1110" y="850" as="targetPoint" />
            <mxPoint as="offset" />
          </mxGeometry>
        </mxCell>
      </root>
    </mxGraphModel>
  </diagram>
</mxfile>
